<svg width="512" height="431" viewBox="0 0 512 431" fill="none" xmlns="http://www.w3.org/2000/svg">
<path d="M178.512 0V134.396H115.508V63.0498H63.0042V149.881L178.512 216.803V430.287H0V261.601H63.0042V367.237H115.508V260.495H134.851L133.746 259.942L115.508 249.434L0 182.512V0H178.512Z" fill="#2F2F2F"/>
<path d="M395.054 0V133.289H332.05V63.0498H279.547V150.434L343.656 187.49V256.07L279.547 219.015V367.237H332.05V282.065L395.054 318.014V430.287H216.542V192.468H233.123L216.542 183.066L200.515 173.663V105.083L216.542 113.932V0H395.054Z" fill="#2F2F2F"/>
<path d="M512 159.284V227.864L495.973 218.462V430.287H432.968V194.127H452.312L432.968 183.066V182.512L416.941 173.11V104.53L432.968 113.379V0H495.973V149.881L512 159.284Z" fill="#2F2F2F"/>
</svg>
